<svg xmlns="http://www.w3.org/2000/svg" width="200.68" height="35" viewBox="0 0 200.68 35"><rect class="svg__rect" x="0" y="0" width="83.76" height="35" fill="#24020F"/><rect class="svg__rect" x="81.76" y="0" width="118.92" height="35" fill="#6F0B4F"/><path class="svg__text" d="M13.97 18.13L13.97 18.13L13.97 17.46Q13.97 15.53 14.90 14.44Q15.82 13.35 17.48 13.35L17.48 13.35Q18.90 13.35 19.74 14.05Q20.58 14.76 20.75 16.08L20.75 16.08L19.30 16.08Q19.05 14.54 17.51 14.54L17.51 14.54Q16.51 14.54 16.00 15.26Q15.48 15.98 15.46 17.37L15.46 17.37L15.46 18.02Q15.46 19.40 16.04 20.17Q16.63 20.93 17.66 20.93L17.66 20.93Q18.80 20.93 19.28 20.42L19.28 20.42L19.28 18.75L17.52 18.75L17.52 17.62L20.76 17.62L20.76 20.89Q20.29 21.50 19.47 21.81Q18.65 22.12 17.61 22.12L17.61 22.12Q16.54 22.12 15.71 21.63Q14.89 21.14 14.44 20.24Q13.99 19.33 13.97 18.13ZM26.94 22L25.46 22L25.46 13.47L26.94 13.47L26.94 22ZM33.43 14.66L30.79 14.66L30.79 13.47L37.56 13.47L37.56 14.66L34.90 14.66L34.90 22L33.43 22L33.43 14.66ZM42.80 22L41.32 22L41.32 13.47L42.80 13.47L42.80 17.02L46.61 17.02L46.61 13.47L48.09 13.47L48.09 22L46.61 22L46.61 18.21L42.80 18.21L42.80 22ZM52.70 19.16L52.70 19.16L52.70 13.47L54.17 13.47L54.17 19.18Q54.17 20.03 54.61 20.48Q55.04 20.93 55.88 20.93L55.88 20.93Q57.59 20.93 57.59 19.13L57.59 19.13L57.59 13.47L59.07 13.47L59.07 19.17Q59.07 20.53 58.20 21.32Q57.33 22.12 55.88 22.12L55.88 22.12Q54.42 22.12 53.56 21.33Q52.70 20.55 52.70 19.16ZM66.75 22L63.64 22L63.64 13.47L66.56 13.47Q68.01 13.47 68.77 14.05Q69.52 14.63 69.52 15.78L69.52 15.78Q69.52 16.36 69.21 16.83Q68.89 17.30 68.28 17.56L68.28 17.56Q68.97 17.75 69.35 18.26Q69.73 18.78 69.73 19.51L69.73 19.51Q69.73 20.71 68.96 21.36Q68.19 22 66.75 22L66.75 22ZM65.12 18.15L65.12 20.82L66.77 20.82Q67.47 20.82 67.86 20.47Q68.25 20.13 68.25 19.51L68.25 19.51Q68.25 18.18 66.89 18.15L66.89 18.15L65.12 18.15ZM65.12 14.66L65.12 17.06L66.58 17.06Q67.27 17.06 67.66 16.75Q68.05 16.43 68.05 15.86L68.05 15.86Q68.05 15.23 67.69 14.95Q67.33 14.66 66.56 14.66L66.56 14.66L65.12 14.66Z" fill="#FFFFFF"/><path class="svg__text" d="M98.33 22L95.95 22L95.95 13.60L99.79 13.60Q100.93 13.60 101.77 13.98Q102.61 14.35 103.07 15.06Q103.52 15.76 103.52 16.71L103.52 16.71Q103.52 17.62 103.10 18.30Q102.67 18.98 101.88 19.36L101.88 19.36L103.69 22L101.15 22L99.62 19.77L98.33 19.77L98.33 22ZM98.33 15.47L98.33 17.93L99.65 17.93Q100.38 17.93 100.75 17.61Q101.12 17.29 101.12 16.71L101.12 16.71Q101.12 16.12 100.75 15.79Q100.38 15.47 99.65 15.47L99.65 15.47L98.33 15.47ZM107.88 17.80L107.88 17.80Q107.88 16.55 108.49 15.55Q109.09 14.56 110.15 14.00Q111.22 13.43 112.55 13.43L112.55 13.43Q113.88 13.43 114.94 14.00Q116.00 14.56 116.61 15.55Q117.22 16.55 117.22 17.80L117.22 17.80Q117.22 19.05 116.61 20.04Q116.00 21.04 114.94 21.60Q113.88 22.17 112.55 22.17L112.55 22.17Q111.22 22.17 110.15 21.60Q109.09 21.04 108.49 20.04Q107.88 19.05 107.88 17.80ZM110.28 17.80L110.28 17.80Q110.28 18.51 110.58 19.05Q110.88 19.60 111.40 19.90Q111.91 20.20 112.55 20.20L112.55 20.20Q113.19 20.20 113.70 19.90Q114.22 19.60 114.52 19.05Q114.82 18.51 114.82 17.80L114.82 17.80Q114.82 17.09 114.52 16.54Q114.22 16 113.70 15.70Q113.19 15.40 112.55 15.40L112.55 15.40Q111.91 15.40 111.40 15.70Q110.88 16 110.58 16.54Q110.28 17.09 110.28 17.80ZM124.14 22L121.95 22L121.95 13.60L123.90 13.60L126.86 18.45L129.74 13.60L131.69 13.60L131.71 22L129.53 22L129.51 17.55L127.35 21.17L126.29 21.17L124.14 17.67L124.14 22ZM143.62 22L136.88 22L136.88 13.60L143.47 13.60L143.47 15.44L139.23 15.44L139.23 16.85L142.96 16.85L142.96 18.63L139.23 18.63L139.23 20.17L143.62 20.17L143.62 22ZM150.80 22L148.42 22L148.42 13.60L152.27 13.60Q153.41 13.60 154.25 13.98Q155.09 14.35 155.54 15.06Q156.00 15.76 156.00 16.71L156.00 16.71Q156.00 17.62 155.57 18.30Q155.15 18.98 154.35 19.36L154.35 19.36L156.16 22L153.62 22L152.10 19.77L150.80 19.77L150.80 22ZM150.80 15.47L150.80 17.93L152.12 17.93Q152.85 17.93 153.23 17.61Q153.60 17.29 153.60 16.71L153.60 16.71Q153.60 16.12 153.23 15.79Q152.85 15.47 152.12 15.47L152.12 15.47L150.80 15.47ZM160.36 17.80L160.36 17.80Q160.36 16.55 160.96 15.55Q161.57 14.56 162.63 14.00Q163.69 13.43 165.02 13.43L165.02 13.43Q166.35 13.43 167.42 14.00Q168.48 14.56 169.09 15.55Q169.69 16.55 169.69 17.80L169.69 17.80Q169.69 19.05 169.09 20.04Q168.48 21.04 167.42 21.60Q166.36 22.17 165.02 22.17L165.02 22.17Q163.69 22.17 162.63 21.60Q161.57 21.04 160.96 20.04Q160.36 19.05 160.36 17.80ZM162.76 17.80L162.76 17.80Q162.76 18.51 163.06 19.05Q163.36 19.60 163.88 19.90Q164.39 20.20 165.02 20.20L165.02 20.20Q165.66 20.20 166.18 19.90Q166.69 19.60 166.99 19.05Q167.29 18.51 167.29 17.80L167.29 17.80Q167.29 17.09 166.99 16.54Q166.69 16 166.18 15.70Q165.66 15.40 165.02 15.40L165.02 15.40Q164.39 15.40 163.87 15.70Q163.36 16 163.06 16.54Q162.76 17.09 162.76 17.80ZM173.99 18.03L173.99 18.03Q173.99 16.59 174.55 15.55Q175.11 14.51 176.12 13.97Q177.12 13.43 178.45 13.43L178.45 13.43Q179.17 13.43 179.82 13.59Q180.48 13.74 180.93 14.04L180.93 14.04L180.07 15.75Q179.46 15.31 178.52 15.31L178.52 15.31Q177.60 15.31 177.04 15.82Q176.48 16.32 176.39 17.27L176.39 17.27Q177.11 16.65 178.29 16.65L178.29 16.65Q179.08 16.65 179.74 16.98Q180.40 17.31 180.79 17.91Q181.18 18.52 181.18 19.30L181.18 19.30Q181.18 20.15 180.74 20.80Q180.31 21.46 179.56 21.82Q178.81 22.17 177.88 22.17L177.88 22.17Q176.08 22.17 175.04 21.10Q173.99 20.03 173.99 18.03ZM176.56 19.42L176.56 19.42Q176.56 19.89 176.88 20.18Q177.19 20.48 177.74 20.48L177.74 20.48Q178.24 20.48 178.56 20.19Q178.88 19.90 178.88 19.41L178.88 19.41Q178.88 18.93 178.56 18.64Q178.24 18.35 177.73 18.35L177.73 18.35Q177.21 18.35 176.89 18.65Q176.56 18.94 176.56 19.42ZM186.49 15.44L184.93 15.44L184.93 13.60L188.87 13.60L188.87 22L186.49 22L186.49 15.44Z" fill="#FFFFFF" x="94.76"/></svg>