<svg xmlns="http://www.w3.org/2000/svg" width="316.68" height="35" viewBox="0 0 316.68 35"><rect class="svg__rect" x="0" y="0" width="94.22" height="35" fill="#6F0B4F"/><rect class="svg__rect" x="92.22" y="0" width="224.46" height="35" fill="#24020F"/><path class="svg__text" d="M15.60 22L13.63 13.47L15.10 13.47L16.43 19.88L18.06 13.47L19.30 13.47L20.91 19.89L22.22 13.47L23.69 13.47L21.72 22L20.31 22L18.68 15.77L17.02 22L15.60 22ZM33.34 22L27.76 22L27.76 13.47L33.30 13.47L33.30 14.66L29.25 14.66L29.25 17.02L32.75 17.02L32.75 18.19L29.25 18.19L29.25 20.82L33.34 20.82L33.34 22ZM40.65 22L37.54 22L37.54 13.47L40.46 13.47Q41.91 13.47 42.66 14.05Q43.42 14.63 43.42 15.78L43.42 15.78Q43.42 16.36 43.10 16.83Q42.79 17.30 42.18 17.56L42.18 17.56Q42.87 17.75 43.25 18.26Q43.63 18.78 43.63 19.51L43.63 19.51Q43.63 20.71 42.85 21.36Q42.08 22 40.65 22L40.65 22ZM39.02 18.15L39.02 20.82L40.67 20.82Q41.36 20.82 41.76 20.47Q42.15 20.13 42.15 19.51L42.15 19.51Q42.15 18.18 40.79 18.15L40.79 18.15L39.02 18.15ZM39.02 14.66L39.02 17.06L40.47 17.06Q41.16 17.06 41.55 16.75Q41.94 16.43 41.94 15.86L41.94 15.86Q41.94 15.23 41.58 14.95Q41.22 14.66 40.46 14.66L40.46 14.66L39.02 14.66ZM47.66 19.42L47.66 19.42L49.14 19.42Q49.14 20.15 49.63 20.55Q50.11 20.95 51.00 20.95L51.00 20.95Q51.78 20.95 52.17 20.63Q52.56 20.32 52.56 19.80L52.56 19.80Q52.56 19.24 52.16 18.94Q51.76 18.63 50.73 18.32Q49.70 18.01 49.09 17.63L49.09 17.63Q47.93 16.90 47.93 15.72L47.93 15.72Q47.93 14.69 48.77 14.02Q49.61 13.35 50.95 13.35L50.95 13.35Q51.84 13.35 52.54 13.68Q53.23 14.01 53.63 14.61Q54.03 15.22 54.03 15.96L54.03 15.96L52.56 15.96Q52.56 15.29 52.14 14.91Q51.72 14.54 50.94 14.54L50.94 14.54Q50.21 14.54 49.81 14.85Q49.41 15.16 49.41 15.71L49.41 15.71Q49.41 16.18 49.84 16.50Q50.28 16.81 51.27 17.10Q52.27 17.40 52.87 17.78Q53.48 18.16 53.76 18.65Q54.04 19.13 54.04 19.79L54.04 19.79Q54.04 20.86 53.22 21.49Q52.40 22.12 51.00 22.12L51.00 22.12Q50.08 22.12 49.30 21.77Q48.52 21.43 48.09 20.83Q47.66 20.22 47.66 19.42ZM59.89 22L58.41 22L58.41 13.47L59.89 13.47L59.89 22ZM66.38 14.66L63.75 14.66L63.75 13.47L70.51 13.47L70.51 14.66L67.85 14.66L67.85 22L66.38 22L66.38 14.66ZM79.85 22L74.27 22L74.27 13.47L79.81 13.47L79.81 14.66L75.75 14.66L75.75 17.02L79.26 17.02L79.26 18.19L75.75 18.19L75.75 20.82L79.85 20.82L79.85 22Z" fill="#FFFFFF"/><path class="svg__text" d="M108.79 22L106.41 22L106.41 13.60L110.25 13.60Q111.39 13.60 112.23 13.98Q113.07 14.35 113.53 15.06Q113.98 15.76 113.98 16.71L113.98 16.71Q113.98 17.62 113.56 18.30Q113.13 18.98 112.34 19.36L112.34 19.36L114.15 22L111.61 22L110.08 19.77L108.79 19.77L108.79 22ZM108.79 15.47L108.79 17.93L110.11 17.93Q110.84 17.93 111.21 17.61Q111.58 17.29 111.58 16.71L111.58 16.71Q111.58 16.12 111.21 15.79Q110.84 15.47 110.11 15.47L110.11 15.47L108.79 15.47ZM118.34 17.80L118.34 17.80Q118.34 16.55 118.95 15.55Q119.55 14.56 120.61 14.00Q121.68 13.43 123.01 13.43L123.01 13.43Q124.34 13.43 125.40 14.00Q126.46 14.56 127.07 15.55Q127.68 16.55 127.68 17.80L127.68 17.80Q127.68 19.05 127.07 20.04Q126.46 21.04 125.40 21.60Q124.34 22.17 123.01 22.17L123.01 22.17Q121.68 22.17 120.61 21.60Q119.55 21.04 118.95 20.04Q118.34 19.05 118.34 17.80ZM120.74 17.80L120.74 17.80Q120.74 18.51 121.04 19.05Q121.34 19.60 121.86 19.90Q122.37 20.20 123.01 20.20L123.01 20.20Q123.65 20.20 124.16 19.90Q124.68 19.60 124.98 19.05Q125.28 18.51 125.28 17.80L125.28 17.80Q125.28 17.09 124.98 16.54Q124.68 16 124.16 15.70Q123.65 15.40 123.01 15.40L123.01 15.40Q122.37 15.40 121.86 15.70Q121.34 16 121.04 16.54Q120.74 17.09 120.74 17.80ZM134.60 22L132.41 22L132.41 13.60L134.36 13.60L137.32 18.45L140.20 13.60L142.15 13.60L142.17 22L139.99 22L139.97 17.55L137.81 21.17L136.75 21.17L134.60 17.67L134.60 22ZM154.08 22L147.34 22L147.34 13.60L153.93 13.60L153.93 15.44L149.69 15.44L149.69 16.85L153.42 16.85L153.42 18.63L149.69 18.63L149.69 20.17L154.08 20.17L154.08 22ZM161.26 22L158.88 22L158.88 13.60L162.73 13.60Q163.87 13.60 164.71 13.98Q165.55 14.35 166.00 15.06Q166.46 15.76 166.46 16.71L166.46 16.71Q166.46 17.62 166.03 18.30Q165.61 18.98 164.81 19.36L164.81 19.36L166.62 22L164.08 22L162.56 19.77L161.26 19.77L161.26 22ZM161.26 15.47L161.26 17.93L162.58 17.93Q163.31 17.93 163.69 17.61Q164.06 17.29 164.06 16.71L164.06 16.71Q164.06 16.12 163.69 15.79Q163.31 15.47 162.58 15.47L162.58 15.47L161.26 15.47ZM170.82 17.80L170.82 17.80Q170.82 16.55 171.42 15.55Q172.03 14.56 173.09 14.00Q174.15 13.43 175.48 13.43L175.48 13.43Q176.81 13.43 177.88 14.00Q178.94 14.56 179.55 15.55Q180.15 16.55 180.15 17.80L180.15 17.80Q180.15 19.05 179.55 20.04Q178.94 21.04 177.88 21.60Q176.82 22.17 175.48 22.17L175.48 22.17Q174.15 22.17 173.09 21.60Q172.03 21.04 171.42 20.04Q170.82 19.05 170.82 17.80ZM173.22 17.80L173.22 17.80Q173.22 18.51 173.52 19.05Q173.82 19.60 174.34 19.90Q174.85 20.20 175.48 20.20L175.48 20.20Q176.12 20.20 176.64 19.90Q177.15 19.60 177.45 19.05Q177.75 18.51 177.75 17.80L177.75 17.80Q177.75 17.09 177.45 16.54Q177.15 16 176.64 15.70Q176.12 15.40 175.48 15.40L175.48 15.40Q174.85 15.40 174.33 15.70Q173.82 16 173.52 16.54Q173.22 17.09 173.22 17.80ZM184.45 18.03L184.45 18.03Q184.45 16.59 185.01 15.55Q185.57 14.51 186.58 13.97Q187.58 13.43 188.91 13.43L188.91 13.43Q189.63 13.43 190.28 13.59Q190.94 13.74 191.39 14.04L191.39 14.04L190.53 15.75Q189.92 15.31 188.98 15.31L188.98 15.31Q188.06 15.31 187.50 15.82Q186.94 16.32 186.85 17.27L186.85 17.27Q187.57 16.65 188.75 16.65L188.75 16.65Q189.54 16.65 190.20 16.98Q190.86 17.31 191.25 17.91Q191.64 18.52 191.64 19.30L191.64 19.30Q191.64 20.15 191.20 20.80Q190.77 21.46 190.02 21.82Q189.27 22.17 188.34 22.17L188.34 22.17Q186.54 22.17 185.50 21.10Q184.45 20.03 184.45 18.03ZM187.02 19.42L187.02 19.42Q187.02 19.89 187.34 20.18Q187.65 20.48 188.20 20.48L188.20 20.48Q188.70 20.48 189.02 20.19Q189.34 19.90 189.34 19.41L189.34 19.41Q189.34 18.93 189.02 18.64Q188.70 18.35 188.19 18.35L188.19 18.35Q187.67 18.35 187.35 18.65Q187.02 18.94 187.02 19.42ZM196.95 15.44L195.39 15.44L195.39 13.60L199.33 13.60L199.33 22L196.95 22L196.95 15.44ZM203.98 20.75L203.98 20.75Q203.98 20.15 204.37 19.78Q204.76 19.41 205.36 19.41L205.36 19.41Q205.95 19.41 206.34 19.78Q206.72 20.15 206.72 20.75L206.72 20.75Q206.72 21.34 206.33 21.72Q205.94 22.11 205.36 22.11L205.36 22.11Q204.78 22.11 204.38 21.72Q203.98 21.34 203.98 20.75ZM210.95 17.80L210.95 17.80Q210.95 16.54 211.55 15.54Q212.15 14.55 213.22 13.99Q214.28 13.43 215.63 13.43L215.63 13.43Q216.80 13.43 217.74 13.83Q218.68 14.22 219.30 14.97L219.30 14.97L217.79 16.33Q216.94 15.40 215.77 15.40L215.77 15.40Q215.76 15.40 215.75 15.40L215.75 15.40Q214.67 15.40 214.01 16.06Q213.35 16.71 213.35 17.80L213.35 17.80Q213.35 18.50 213.65 19.04Q213.95 19.59 214.49 19.89Q215.03 20.20 215.73 20.20L215.73 20.20Q216.41 20.20 217.01 19.93L217.01 19.93L217.01 17.62L219.11 17.62L219.11 21.10Q218.39 21.61 217.45 21.89Q216.52 22.17 215.58 22.17L215.58 22.17Q214.26 22.17 213.20 21.61Q212.15 21.05 211.55 20.05Q210.95 19.06 210.95 17.80ZM226.48 22L224.10 22L224.10 13.60L226.48 13.60L226.48 22ZM233.44 15.48L230.86 15.48L230.86 13.60L238.38 13.60L238.38 15.48L235.82 15.48L235.82 22L233.44 22L233.44 15.48ZM245.13 22L242.76 22L242.76 13.60L245.13 13.60L245.13 16.76L248.37 16.76L248.37 13.60L250.75 13.60L250.75 22L248.37 22L248.37 18.72L245.13 18.72L245.13 22ZM255.84 18.26L255.84 18.26L255.84 13.60L258.22 13.60L258.22 18.19Q258.22 20.20 259.81 20.20L259.81 20.20Q261.39 20.20 261.39 18.19L261.39 18.19L261.39 13.60L263.74 13.60L263.74 18.26Q263.74 20.13 262.70 21.15Q261.66 22.17 259.79 22.17L259.79 22.17Q257.91 22.17 256.88 21.15Q255.84 20.13 255.84 18.26ZM273.36 22L268.82 22L268.82 13.60L273.12 13.60Q274.73 13.60 275.57 14.19Q276.41 14.79 276.41 15.79L276.41 15.79Q276.41 16.39 276.12 16.87Q275.82 17.34 275.28 17.62L275.28 17.62Q276.00 17.87 276.41 18.41Q276.82 18.94 276.82 19.70L276.82 19.70Q276.82 20.80 275.93 21.40Q275.04 22 273.36 22L273.36 22ZM271.18 18.58L271.18 20.28L273.17 20.28Q274.42 20.28 274.42 19.43L274.42 19.43Q274.42 18.58 273.17 18.58L273.17 18.58L271.18 18.58ZM271.18 15.31L271.18 16.94L272.81 16.94Q274.01 16.94 274.01 16.12L274.01 16.12Q274.01 15.31 272.81 15.31L272.81 15.31L271.18 15.31ZM281.02 20.75L281.02 20.75Q281.02 20.15 281.41 19.78Q281.80 19.41 282.39 19.41L282.39 19.41Q282.99 19.41 283.37 19.78Q283.75 20.15 283.75 20.75L283.75 20.75Q283.75 21.34 283.36 21.72Q282.97 22.11 282.39 22.11L282.39 22.11Q281.81 22.11 281.41 21.72Q281.02 21.34 281.02 20.75ZM290.79 22L288.41 22L288.41 13.60L290.79 13.60L290.79 22ZM295.54 17.80L295.54 17.80Q295.54 16.55 296.14 15.55Q296.74 14.56 297.81 14.00Q298.87 13.43 300.20 13.43L300.20 13.43Q301.53 13.43 302.59 14.00Q303.66 14.56 304.26 15.55Q304.87 16.55 304.87 17.80L304.87 17.80Q304.87 19.05 304.26 20.04Q303.66 21.04 302.60 21.60Q301.54 22.17 300.20 22.17L300.20 22.17Q298.87 22.17 297.81 21.60Q296.74 21.04 296.14 20.04Q295.54 19.05 295.54 17.80ZM297.93 17.80L297.93 17.80Q297.93 18.51 298.24 19.05Q298.54 19.60 299.05 19.90Q299.57 20.20 300.20 20.20L300.20 20.20Q300.84 20.20 301.36 19.90Q301.87 19.60 302.17 19.05Q302.47 18.51 302.47 17.80L302.47 17.80Q302.47 17.09 302.17 16.54Q301.87 16 301.36 15.70Q300.84 15.40 300.20 15.40L300.20 15.40Q299.56 15.40 299.05 15.70Q298.54 16 298.24 16.54Q297.93 17.09 297.93 17.80Z" fill="#FFFFFF" x="105.22"/></svg>